<svg width="160" height="40" viewBox="0 0 160 40" fill="none" xmlns="http://www.w3.org/2000/svg">
  <rect width="160" height="40" rx="12" fill="url(#paint0_linear_1_1)"/>
  <path d="M24.218 20.002c0-4.46 3.62-8.082 8.082-8.082 2.676 0 5.047 1.289 6.53 3.29l-3.062 1.863a4.53 4.53 0 0 0-3.468-1.641c-2.508 0-4.532 2.027-4.532 4.57 0 2.543 2.024 4.57 4.532 4.57 1.356 0 2.58-.58 3.403-1.496l3.125 1.804c-1.55 1.957-3.908 3.162-6.528 3.162-4.462 0-8.082-3.621-8.082-8.04Z" fill="white"/>
  <path d="M49.686 25.934h-4.033V14.144h6.486c2.88 0 4.859 1.68 4.859 4.24 0 1.787-.934 3.152-2.522 3.78l2.806 3.77h-4.587l-2.178-3.22h-.831v3.22Zm0-6.13h1.903c.894 0 1.45-.54 1.45-1.36 0-.84-.556-1.378-1.45-1.378h-1.903v2.738Zm14.413 6.43c-3.442 0-5.94-2.296-5.94-5.86 0-3.563 2.498-5.857 5.94-5.857 3.439 0 5.937 2.294 5.937 5.858 0 3.563-2.498 5.86-5.937 5.86Zm0-3.077c1.39 0 2.297-1.105 2.297-2.784 0-1.678-.907-2.783-2.297-2.783-1.392 0-2.3 1.105-2.3 2.783 0 1.679.908 2.784 2.3 2.784Zm16.05 3.077c-3.441 0-5.939-2.296-5.939-5.86 0-3.563 2.498-5.857 5.94-5.857 3.439 0 5.937 2.294 5.937 5.858 0 3.563-2.498 5.86-5.937 5.86Zm0-3.077c1.39 0 2.297-1.105 2.297-2.784 0-1.678-.907-2.783-2.297-2.783-1.392 0-2.3 1.105-2.3 2.783 0 1.679.908 2.784 2.3 2.784Zm9.828 3.077c-1.694 0-2.84-.894-3.219-2.35l3.173-.894c.147.576.553.934 1.122.934.706 0 1.15-.452 1.15-1.232v-8.198h3.97v8.312c0 2.52-1.968 4.428-4.196 4.428Zm14.713-.3c-3.094 0-5.13-2.026-5.13-5.33V14.144h3.97v6.624c0 1.41.734 2.296 1.923 2.296 1.186 0 1.92-.886 1.92-2.296v-6.624h3.973v6.63c0 3.303-2.04 5.33-5.136 5.33Zm18.359-9.409h-3.017v9.409h-3.97v-9.409h-3.017v-3.156h10.004v3.156Zm5.502 9.409h-3.97V14.144h3.97v11.79Zm8.227.3c-3.094 0-5.132-2.027-5.132-5.33v-6.76h3.972v6.624c0 1.41.733 2.296 1.92 2.296 1.19 0 1.923-.886 1.923-2.296v-6.624h3.97v6.63c0 3.303-2.036 5.33-5.13 5.33Z" fill="white"/>
  <defs>
    <linearGradient id="paint0_linear_1_1" x1="0" y1="0" x2="160" y2="40" gradientUnits="userSpaceOnUse">
      <stop stop-color="#0B62DB"/>
      <stop offset="1" stop-color="#092F66"/>
    </linearGradient>
  </defs>
</svg>
